<svg id="Layer_1" data-name="Layer 1" xmlns="http://www.w3.org/2000/svg" viewBox="0 0 4626.38 2438.81"><defs><style>.cls-1{fill:#fff;}</style></defs><path class="cls-1" d="M2724.63,850.88c-3-90.27-43.4-173.27-116.69-226.86-45.75-33.45-99.37-52-154.64-57.32-42.13-6.69-85.7-5-127.82,1.11-137,19.84-269.33,89.88-343.89,209.52-20.8,33.37-35.29,69.83-45.47,107.71-5.47,20.35-10.92,40.23-19.34,59.59q-1.53,3.51-3,7-22.11-94.73-42.35-189.9c-4.09-19.34-21.83-26.69-37.06-24.14a35.63,35.63,0,0,0-3.74.63L1576.1,795.85l-127.28,28.82c-34.31,7.78-76.79,8-93.36,42.9-15.1,31.78,66.46,430.52,126.37,623.37q45,144.87,103.47,285.09c37.56,90,202,564.92,203.76,579.68,5.49,19.64,24.27,18.59,42.35,17.91l507.44-24.34c20.9-1,28.06-18.88,24.18-34.82h0l-.19-.54a36.6,36.6,0,0,0-1.89-5.45L1982.81,1216.38c.12-.38.24-.77.37-1.16,8.94-26.66,18.58-51.51,44.74-58.2,20.94-.07,42.3,4.67,64.26,16.38s46.26,25.25,71.48,36.85c69.38,40.57,159,39.87,237.05,33.89,95.58-7.33,175.88-73.16,234.12-145.69C2691.13,1028.34,2727.64,942,2724.63,850.88Z"/><path class="cls-1" d="M1863.62,45.29h0a26.76,26.76,0,0,0-8.23-.46c-68.92-3.88-553-31-585.12-30.1-.22,0-.44,0-.65,0a6.35,6.35,0,0,0-1,.1c-.06,0-.11.06-.18.08-31.76-.22-41.6,17.27-50.49,24.85-100,85.29-201.06,169.56-300,256.16-45.09,39.48-88.88,80.81-127.47,126.27L801.23,342q17.6-131.58,35.2-263.14C840.15,51,819.06,50.69,791,49.21c-146.82,9.5-293.47,1.17-439.61-15.77-44.83-5.2-43.31,37.27-44.17,46.94Q232.69,909,98,1730.74,59.79,1963.2,16.8,2194.81c-.06.31-15.76,60.61,18.78,57.88a2814.94,2814.94,0,0,1,301.14-8q73.65,2.1,147.14,8c40.25,3.23,82,11.83,117.15-13.23,17-12.12,110.29-504.86,151.18-738.13q132.27,445.11,301.72,877.94c5.18,13.21,18.21,15.07,37.4,19.24s490.28,10.51,574.55,9.19a54.65,54.65,0,0,0,12.81-.21h0c6.37-1.08,8.54-4.12,4.57-9.67-5.25-7.34-94.66-367.52-107.49-400.87L1150.11,780.52c121.23-96.21,440.75-402.63,615.43-571.84,44.09-33.27,85.55-69.74,118.14-114.95C1898.79,72.76,1882.73,49.31,1863.62,45.29Z"/><path class="cls-1" d="M4612.65,1253.68q-.42-5.61-1.13-11.27c-3.34-26.38-11.58-53.33-23.56-79.53a309.49,309.49,0,0,0-123.62-137.57,324.45,324.45,0,0,0-54.91-26.13q-11.34-4.15-23-7.46l-1.39-.41q-8.48-2.38-17.09-4.31a331.58,331.58,0,0,0-123.31-4.17,1334.79,1334.79,0,0,0-54.47-166.94c-3.81-9.45-7.71-18.88-11.78-28.26q-5-11.57-10.32-23.15c-27-59.15-59.3-117.73-102.91-166A382.9,382.9,0,0,0,4028.64,563q-10.14-8.58-20.53-16.42C3959.66,510,3907.35,485.9,3851.7,475.2a355,355,0,0,0-53-6.07h-.49q-17.74-.66-35.87.38c-41.9,2.45-72.43-2-90.82-9.92-47.63-20.58-13.59-64.81,117-74.53,46.71-3.47,69.41-24.6,78.08-54.28a103.86,103.86,0,0,0,2.88-13.22q.63-4.2,1-8.56l0-.37c4.74-59.8-28.54-140.47-41.62-188.91a54.77,54.77,0,0,0-13.39-24.27,49.66,49.66,0,0,0-7.71-6.42,50.49,50.49,0,0,0-5.69-3.39,55.78,55.78,0,0,0-5.62-2.44,57.14,57.14,0,0,0-11.88-2.92c-2-.27-4.06-.45-6.11-.52h-.08c-7.46-.94-14.81-1.74-22.1-2.48l-6-.58q-9-.84-17.8-1.48c-1.39-.1-2.79-.22-4.17-.31q-10.54-.7-20.84-1.11c-1.71-.07-3.41-.11-5.11-.17q-8.22-.28-16.3-.38l-5.25-.06c-6.66,0-13.27,0-19.77.15-1.05,0-2.07.07-3.11.1-5.58.14-11.1.36-16.57.63-1.81.09-3.61.18-5.4.29-5.77.33-11.5.72-17.14,1.19l-1.8.14c-6.17.53-12.24,1.16-18.25,1.85-1.65.18-3.29.39-4.92.59-4.83.59-9.62,1.22-14.34,1.91-1.31.19-2.63.36-3.92.56q-8.68,1.32-17.13,2.84l-3.85.73q-6.83,1.29-13.5,2.69l-4.44.94c-5.46,1.2-10.87,2.44-16.19,3.77l-1.53.4c-4.87,1.22-9.66,2.51-14.4,3.83L3500.29,97c-4.52,1.3-9,2.64-13.41,4l-2,.62q-7.53,2.4-14.82,5l-3.55,1.27q-5.93,2.13-11.71,4.36l-3.11,1.19q-7,2.76-13.88,5.65l-2.18,1q-5.87,2.52-11.57,5.14l-3.13,1.44q-13.27,6.2-25.66,12.84l-2.69,1.45c-3.71,2-7.37,4-11,6.12l-1.2.68q-6.06,3.51-11.9,7.11c-.6.36-1.18.73-1.77,1.1q-5.11,3.18-10,6.4l-1.7,1.11c-3.78,2.5-7.51,5-11.14,7.56l-.07,0c-3.55,2.49-7,5-10.42,7.51l-1.51,1.11q-10.39,7.74-19.92,15.63l-.95.79c-9.74,8.1-18.79,16.25-27.15,24.34l-.26.25c-5.66,5.48-11,10.94-16,16.32l0,0h0c-33.07,35.36-53,67.8-61.48,86.79-28.28,63-24.88,136.31-4.14,201.09,16.28,50.83,71.52,181,205.67,220.39h0a275.37,275.37,0,0,0,31.06,7.17c1.64.28,3.3.55,5,.81,2.77.43,5.56.85,8.39,1.2,4.34.54,8.74,1,13.22,1.37,1.71.14,3.48.2,5.21.31,3.76.24,7.56.42,11.42.52,1.71,0,3.42.08,5.14.1,5.44.06,10.93,0,16.56-.19h0l5.55-.23c13.6-.59,31.56-1.41,50-.63,2.32.09,4.66.22,7,.38a198.4,198.4,0,0,1,32.43,4.56c3,.72,6,1.53,8.92,2.45,17.32,5.5,31.3,14.71,37.36,29.82a44,44,0,0,1,2.36,8.07,50.58,50.58,0,0,1,.9,7.3,66.22,66.22,0,0,1-.79,13.12,85.41,85.41,0,0,1-11.85,32.05c-1.32,2.14-2.71,4.22-4.2,6.24-1.8,2.45-3.71,4.84-5.75,7.13a125.6,125.6,0,0,1-20.95,18.6,179.4,179.4,0,0,1-16.34,10.34q-4.28,2.4-8.68,4.62c-26.46,13.37-171.88,27.32-197,34.8l-8.18,2.45-.12,0c-1.19.36-2.45.79-3.74,1.27-.45.17-.92.37-1.37.55-.92.36-1.85.73-2.81,1.15-.55.23-1.12.5-1.68.75-.92.42-1.85.84-2.8,1.3l-1.79.89c-1,.49-2,1-3,1.53l-1.78.95c-1.08.59-2.18,1.2-3.29,1.83l-1.65.94c-1.26.74-2.55,1.5-3.84,2.29l-1.24.75c-3.55,2.18-7.19,4.53-10.86,7,3.93,22.22,7.44,43.37,10.43,63.1,38,251.08,61,511.93,42.26,765.75-4.7,63.71-11.68,127.51-26.5,189.67-13,54.41-20.59,73.63-48.68,112.6-24.8,32.28,5.07,39.67,6.42,39.77,16,1.16,309.65-8.13,357.47-12.7,387.71-37,515.42-131.68,569.52-195.46,19.44-22.92,32.53-47.93,41.37-74.26,2.95-8.78,5.42-17.71,7.5-26.75,2.26-9.83,4.05-19.8,5.48-29.87,6.07-42.86,5.48-87.57,5.84-131.32.06-7,.11-13.68.16-20,.34-43.59.45-73.09-.52-121.48,81.1-42.88,162.79-72.44,232.08-115.25,43.84-27.08,66.55-64.24,73.51-105.52a168.47,168.47,0,0,0,2-17.92A191.71,191.71,0,0,0,4612.65,1253.68ZM4288.58,1198c-2.15-24.38-5.38-49.75-10.6-77.89,24.25-3.25,47.54-4.88,69.47-3.65q7.32.4,14.42,1.26t14,2.18q6.89,1.34,13.54,3.2a140.72,140.72,0,0,1,46.1,22.27c18,13.29,33.79,31.81,46.93,57.1,10.76,20.72,29.57,61.73,18.41,85.77-12.16,26.21-55.06,38.68-78.87,49.33a862.76,862.76,0,0,1-124.7,44.23h0c-.31-6.11-.49-12.21-.84-18.31-2.32-39.65-3-73.68-4.29-106.83C4291.34,1237.09,4290.33,1217.85,4288.58,1198Z"/><path class="cls-1" d="M3251.44,953.07c-40.52-283.22-169-852.34-206.15-864-80.59-25.26-268.23,34-343.9,79-15.2,9-7.67,55.71-6.29,63.23,52.57,286.62,152.91,965.62,157,1016.28,9.47,117,25.57,237.35,19.74,355.29-4.51,91.33-5,131.76-64.79,183.32-50.68,43.67-154.18-3.54-199.25-240.24-10.19-53.54-42.13-240.65-49.88-289.08-40.83,28.68-117,48.73-167.28,52.58-63.56,4.87-134.72,6.23-196.4-15.3a30.94,30.94,0,0,0,.13,5.58c41.44,363.5,134.06,719.17,272.22,880.2,67.58,78.76,255.79,153.46,342.12,150,89-3.59,125.81-12,209-54.18,40.68-20.6,239.26-126.15,274.33-368.69,9.06-62.72,12.29-126.75,13.83-190.6C3312.07,1462.06,3287.12,1202.38,3251.44,953.07Z"/><path class="cls-1" d="M2325.49,503.49c42.11-6.09,85.67-7.79,127.81-1.11a323.73,323.73,0,0,1,92.26,22.53c-7.72-97.13-14.2-236.22-18.16-303.83-.44-7.63-4.21-54.76-21.13-59.93-84.18-25.71-280.53-38.72-352.82,5-16.9,10.21-22.55,215.53-20.38,403C2191.86,535.18,2258.09,513.25,2325.49,503.49Z"/></svg>
