<svg id="Layer_2" data-name="Layer 2" xmlns="http://www.w3.org/2000/svg" viewBox="0 0 2218.21 790.47"><defs><style>.cls-1{fill:#f3a5c8;}.cls-2{fill:#fff;}.cls-3,.cls-4,.cls-5{fill:none;stroke-linecap:round;stroke-miterlimit:10;}.cls-3{stroke:#706f6f;stroke-width:4px;}.cls-4{stroke:#f3a5c8;stroke-width:2px;}.cls-5{stroke:#9c9b9b;stroke-width:15px;}.cls-6{fill:#1d1d1b;}</style></defs><path class="cls-1" d="M1404.12,193.11c-4.42,3.21-4.56,4.06-6.13,6.63s-4,1.28-4.42-2.14,5-3.85,6.56-5.27-2.14.42-6.42,1.56-5.27-.28-9.41,2.57,2.14,2.71,1.29,5.7-3.71,5.71-5.71,8-2.56,5.84-3.28,3.13-5.84-3.27-3.7,1.57,0,7.56-3.43,8.21-5.27,1.92-3.42,4.08,1.14,5.25-1.71,5.12-3-2.58-5.7-3.72.28-2.28-2.14-4.42-5.42,1.43-7.56,6-2.63,2.56-3.06-.79-3.49-7-5.78-7.84-2.78,0-3.2,2.71-4.14,3.92-7,5-3.35,2.92.07,2.33,2,1,.79,3.16-6,5.85-6.35,8.27,1.5,4.78-.78,6.56-1.29,3.85-2.14,6.41-5.28,6.92-8.13,5.42-.14-2.92-2.64-5.84-1.85-7.2-.64-9.63-2.92-2.56-3.62-5.84,1.13-5-2.86-5.78-7.42.93-10.34-1.35-1.64-7.49,0-11.12,1.64-2.71,2.57-4.56,3.56-3.21,2.2-3.71-2.49-4.85-.42-4.92,3.06,0,3.35-1.78-2-2.07-.93-2.57a6,6,0,0,0,2.71-1.85,14,14,0,0,1,3.72-2.78c.93-.5,0-1.73,0-1.73-.6-.57,0-2.05.84-1,1.18,1.5,2.14,1,1.86-.71s-.61-1.93-2.89-.93-2.53-2.35-.82-4.21,3-.71,4.7-4.84,3.42-4,7.6-4.28c1-.07,10.8,3.71,7.09,5.36s-2.28,2.62,0,1.55,6.84-3.06,10.42-4.49,3.69-1.42,5.41-3.13,1.71-.72,5.56-.72,4.41-2.14,7.55-3.85,9.27-2.14,14-1.57-4.7,3.71-2.13,4.14,8.83-2.42,11.69.85,5.13.29,7.27-.85,4.85.43,10.12,2.71,3.56,1,9.13,1.28a13.48,13.48,0,0,1,3.3.63,104.8,104.8,0,0,0-198.52-2.05c5.15-.69,12.83,2.83,16.28,1.42,3.85-1.57,5.42-8.7,12.41-11.83s17.43-5.35,22.53-6.06c4.61-.64,5,1.5,2.13,2.64s-7.7,5.7-7.55,9.83,5.84,5,8.69,7.13,0,6.7-1.94,6.13-2.19-.57-2.76-3.85-4.85,0-8.27,1.57-4.85,4.56-2.71,6.85,4.14,6.27,7.27,2,3.28-5.13,5.14-4.49a13.93,13.93,0,0,1,7.27,5.68c2.14,3.46-3,3.94-4.57,4.66s2.14,2.85-1.37,4.27-4.47,5.56-6.18,6.85-1,6.7-3.85,4-7.7,1-7.42,6,6-1,5.42,1,2.43,3,3.57,4.56.14,3-2.57,1.57-7-2.28-8.84-5.85-10-8.55-12.55-13.54,0-6-1.85-9-8.84-10.26-12.12-10.19c-3,.07-7.06,2.88-9.79,1.7a104.76,104.76,0,1,0,203.63-6C1407.6,189.61,1406.9,191.09,1404.12,193.11Zm-68.72-26c4-.28,9.55,2,0,3.14S1330.53,167.44,1335.4,167.09ZM1315,169.51c2.28-.08,3.71,2,2,3.14s-2.28.86-3.71,2.57-6.13-.72-6-3.42S1311.44,169.65,1315,169.51Zm-63.44,53.75c1.56-.71,3.89.58,6.84,1.57,2.13.72,6.42,2.14,3.85,2.28s-1.43-.28-3.85-1A22.47,22.47,0,0,1,1251.57,223.26Zm26.94,24.1c0,1.85-.43,4.85-3.19,6.13s-3.51,5.42-6.07,7.84-6.71,8-8.08,12.41,3.51,7.27-2,4.84-1.47-16.82-.62-21.67,1.29-5.56-1.85-7.84-5-8.55-1.85-11.41,1.14-5.7,3.7-6.13a13.31,13.31,0,0,0,3.71,0c2-.28,4.42,2.57,7.13,4.28s1.85,2.85,8.41,5S1278.51,245.51,1278.51,247.36Zm7.27-63.87a25.2,25.2,0,0,0-8.55,6c-2.57,2.71-2,4.42-4.11,3.28s-3.3-7.55-3.45-11.26-2.42-6.27-5.7-6.27-3.71-2.71-1.14-5.14,2-3.13,5.84-3.27,10.13-1.86,16.4-1.43c0,0,6,3.42,4,6.27S1289.06,182.06,1285.78,183.49Zm4.57,3.85c2.28-.43,4,1.85.71,2.85S1287.9,187.8,1290.35,187.34Zm40.63,64s-1.28,5.42-3.14,4.14-.42-4.42,2-6.7S1332.12,248.5,1331,251.35Zm61-6.3c-2.56.25-4.56,1-8.7-1.25s.15-4,3.14-2.86C1386.44,240.94,1394.57,244.79,1392,245.05Zm-10.41-30.48c4.71-1.71,2.43-4.85,4-7.56,0,0,2.28.71,1.46,1.85s-1.75,6.28-4.46,8S1376.89,216.28,1381.59,214.57Zm-10,20.1s1.14,5.85-2.09,5.69S1367.76,235.81,1371.61,234.67Zm-12.4,1a35,35,0,0,1,5.42,5.42c2,2.71,10.4,3.85,10.4,3.85C1361.78,245.93,1360.92,240,1359.21,235.67ZM1392,260.48c-2,3.7-2.14,8.69-7,4.42s-1.72-4.71-6-4.57-8,3.14-8,0-3.42-5.27,0-7l2.43-1.61c2.42-1.61,2.71-4.24,8.41-4s5.42.85,8.27,4.56S1394,256.77,1392,260.48Z"/><path class="cls-2" d="M1285.07,165.38c-6.27-.43-12.55,1.28-16.4,1.43s-3.27.85-5.84,3.27-2.14,5.14,1.14,5.14,5.56,2.56,5.7,6.27,1.34,10.12,3.45,11.26,1.54-.57,4.11-3.28a25.2,25.2,0,0,1,8.55-6c3.28-1.43,1.29-9,3.28-11.84S1285.07,165.38,1285.07,165.38Z"/><path class="cls-2" d="M1214.78,193.11c3.28-.07,10.27,7.2,12.12,10.19s-.71,4,1.85,9,10.7,10,12.55,13.54,6.13,4.42,8.84,5.85,3.71,0,2.57-1.57-4.14-2.57-3.57-4.56-5.13,4-5.42-1,4.57-8.7,7.42-6,2.14-2.71,3.85-4,2.66-5.42,6.18-6.85-.19-3.56,1.37-4.27,6.71-1.2,4.57-4.66a13.93,13.93,0,0,0-7.27-5.68c-1.86-.64-2,.21-5.14,4.49s-5.13.29-7.27-2-.71-5.28,2.71-6.85,7.7-4.85,8.27-1.57.81,3.28,2.76,3.85,4.8-4,1.94-6.13-8.55-3-8.69-7.13,4.7-8.69,7.55-9.83,2.48-3.28-2.13-2.64c-5.1.71-15.55,2.92-22.53,6.06s-8.56,10.26-12.41,11.83c-3.45,1.41-11.13-2.11-16.28-1.42a103.67,103.67,0,0,0-3.63,13C1207.72,196,1211.74,193.18,1214.78,193.11Z"/><path class="cls-2" d="M1262.26,227.11c2.57-.14-1.72-1.56-3.85-2.28-3-1-5.28-2.28-6.84-1.57a22.47,22.47,0,0,0,6.84,2.86C1260.83,226.83,1259.69,227.26,1262.26,227.11Z"/><path class="cls-2" d="M1277.8,240.8c-6.56-2.14-5.7-3.28-8.41-5s-5.13-4.56-7.13-4.28a13.31,13.31,0,0,1-3.71,0c-2.56.43-.57,3.28-3.7,6.13s-1.29,9.13,1.85,11.41,2.71,3,1.85,7.84-4.89,19.25.62,21.67.62-.42,2-4.84,5.51-10,8.08-12.41,3.3-6.56,6.07-7.84,3.19-4.28,3.19-6.13S1284.36,242.94,1277.8,240.8Z"/><path class="cls-2" d="M1290.35,187.34c-2.45.46-2.57,3.85.71,2.85S1292.63,186.91,1290.35,187.34Z"/><path class="cls-2" d="M1313.3,175.22c1.43-1.71,2-1.43,3.71-2.57s.28-3.22-2-3.14c-3.57.14-7.56-.42-7.7,2.29S1311.87,176.93,1313.3,175.22Z"/><path class="cls-2" d="M1335.4,170.23c9.55-1.14,4-3.42,0-3.14C1330.53,167.44,1325.85,171.37,1335.4,170.23Z"/><path class="cls-2" d="M1403.84,183.2c-5.57-.28-3.85,1-9.13-1.28s-8-3.85-10.12-2.71-4.42,4.13-7.27.85-9.13-.42-11.69-.85,6.84-3.56,2.13-4.14-10.83-.14-14,1.57-3.71,3.85-7.55,3.85-3.85-1-5.56.72-1.84,1.71-5.41,3.13-8.14,3.41-10.42,4.49-3.71.11,0-1.55-6-5.43-7.09-5.36c-4.18.27-5.89.14-7.6,4.28s-3,3-4.7,4.84-1.45,5.21.82,4.21,2.6-.79,2.89.93-.68,2.21-1.86.71c-.84-1.07-1.44.41-.84,1,0,0,.93,1.23,0,1.73a14,14,0,0,0-3.72,2.78,6,6,0,0,1-2.71,1.85c-1.07.5,1.21.79.93,2.57s-1.29,1.71-3.35,1.78-.93,4.42.42,4.92-1.28,1.85-2.2,3.71-.93.92-2.57,4.56-2.92,8.84,0,11.12,6.34.57,10.34,1.35,2.15,2.5,2.86,5.78,4.83,3.42,3.62,5.84-1.85,6.72.64,9.63-.21,4.35,2.64,5.84,7.27-2.85,8.13-5.42-.14-4.63,2.14-6.41.42-4.14.78-6.56,5.13-6.06,6.35-8.27,2.63-3.75-.79-3.16-2.92-1.26-.07-2.33,6.56-2.28,7-5,.92-3.56,3.2-2.71,5.35,4.49,5.78,7.84.93,5.35,3.06.79,5.14-8.13,7.56-6-.57,3.28,2.14,4.42,2.85,3.6,5.7,3.72,3.57-2.95,1.71-5.12,0-3.43,3.42-4.08,5.56-3.36,3.43-8.21,3-4.27,3.7-1.57,1.29-.85,3.28-3.13,4.85-5,5.71-8-5.42-2.85-1.29-5.7,5.14-1.42,9.41-2.57,8-3,6.42-1.56-7,1.85-6.56,5.27,2.85,4.71,4.42,2.14,1.71-3.42,6.13-6.63c2.78-2,3.48-3.5,4.5-4.32q-.69-2.5-1.48-5A13.48,13.48,0,0,0,1403.84,183.2Z"/><path class="cls-2" d="M1329.86,248.79c-2.44,2.28-3.87,5.42-2,6.7s3.14-4.14,3.14-4.14C1332.12,248.5,1332.3,246.5,1329.86,248.79Z"/><path class="cls-2" d="M1381.88,247.79c-5.7-.29-6,2.34-8.41,4l-2.43,1.61c-3.42,1.71,0,3.85,0,7s3.71.15,8,0,1.14.29,6,4.57,5-.72,7-4.42,1-4.42-1.85-8.13S1387.58,248.09,1381.88,247.79Z"/><path class="cls-2" d="M1375,244.94s-8.41-1.14-10.4-3.85a35,35,0,0,0-5.42-5.42C1360.92,240,1361.78,245.93,1375,244.94Z"/><path class="cls-2" d="M1369.52,240.36c3.23.16,2.09-5.69,2.09-5.69C1367.76,235.81,1366.29,240.2,1369.52,240.36Z"/><path class="cls-2" d="M1383.3,243.8c4.14,2.28,6.14,1.5,8.7,1.25s-5.56-4.11-5.56-4.11C1383.45,239.8,1379.17,241.51,1383.3,243.8Z"/><path class="cls-2" d="M1382.59,216.85c2.71-1.71,3.64-6.84,4.46-8s-1.46-1.85-1.46-1.85c-1.57,2.71.71,5.85-4,7.56S1379.88,218.56,1382.59,216.85Z"/><circle class="cls-1" cx="163.36" cy="515.04" r="27.82"/><path class="cls-2" d="M163.36,544.91A29.88,29.88,0,1,1,193.24,515,29.9,29.9,0,0,1,163.36,544.91Zm0-55.64A25.77,25.77,0,1,0,189.13,515,25.8,25.8,0,0,0,163.36,489.27Z"/><circle class="cls-1" cx="317.61" cy="619.58" r="27.82"/><path class="cls-2" d="M317.61,649.45a29.88,29.88,0,1,1,29.87-29.87A29.91,29.91,0,0,1,317.61,649.45Zm0-55.64a25.77,25.77,0,1,0,25.76,25.77A25.8,25.8,0,0,0,317.61,593.81Z"/><path class="cls-1" d="M158.23,545.29A27.69,27.69,0,0,1,173,549.57c.72-4.69,2-12.89,3.07-20.49-5.76-1.33-14.14-5.47-21.9-3.37l-3,20.52A27.89,27.89,0,0,1,158.23,545.29Z"/><path class="cls-2" d="M173,551.63a2,2,0,0,1-1.09-.32,25.72,25.72,0,0,0-13.69-4,26.26,26.26,0,0,0-6.54.87,2,2,0,0,1-1.89-.45,2.07,2.07,0,0,1-.66-1.83l3-20.52a2,2,0,0,1,1.49-1.69c6.43-1.73,13.06.36,18.38,2,1.64.52,3.18,1,4.53,1.32a2,2,0,0,1,1.56,2.3c-1.13,7.81-2.41,16.2-3.07,20.5a2,2,0,0,1-1.17,1.56A2,2,0,0,1,173,551.63Zm-14.78-8.39a29.6,29.6,0,0,1,13.2,3.1c.64-4.16,1.52-10,2.36-15.74-1-.27-2-.59-3-.92-4.65-1.47-9.87-3.12-14.78-2.28l-2.37,16.21A28.9,28.9,0,0,1,158.23,543.24Z"/><path class="cls-1" d="M224.68,591.75a27.74,27.74,0,0,1,3.84-14.06l-52.44-9.57c-7.33,4.19-7.33,11-3.14,15.16,6.79,2.32,35.72,9.51,52.23,13.56A27.54,27.54,0,0,1,224.68,591.75Z"/><path class="cls-2" d="M225.17,598.89a2,2,0,0,1-.49-.06c-16.63-4.08-45.55-11.27-52.4-13.6a2.21,2.21,0,0,1-.8-.5,11.05,11.05,0,0,1-3.33-9.25c.49-3.63,2.94-6.87,6.91-9.14a2.11,2.11,0,0,1,1.39-.24l52.44,9.57a2.06,2.06,0,0,1,1.5,1.17,2,2,0,0,1-.1,1.89,25.85,25.85,0,0,0-3.56,13,25.11,25.11,0,0,0,.46,4.71,2.05,2.05,0,0,1-2,2.43ZM174.08,581.5c7,2.3,32.21,8.58,48.65,12.62-.07-.8-.1-1.59-.1-2.37a29.74,29.74,0,0,1,2.78-12.54l-48.93-8.93c-2.5,1.59-4,3.56-4.26,5.75A6.86,6.86,0,0,0,174.08,581.5Z"/><path class="cls-1" d="M308.15,602.76,280.27,593a27.68,27.68,0,0,1-4.85,14.53,238.62,238.62,0,0,0,23.2,12.07C304.38,617.09,309.09,612.11,308.15,602.76Z"/><path class="cls-2" d="M298.62,621.63a2,2,0,0,1-.83-.18,237.64,237.64,0,0,1-23.4-12.17,2,2,0,0,1-1-1.32,2.08,2.08,0,0,1,.31-1.61,25.66,25.66,0,0,0,4.48-13.46A2.06,2.06,0,0,1,281,591l27.88,9.78a2.06,2.06,0,0,1,1.36,1.74c1.14,11.3-5.22,16.51-10.76,18.9A2.1,2.1,0,0,1,298.62,621.63ZM278.3,606.81c5.41,3.12,12.78,7.13,20.31,10.51,5.29-2.57,7.84-7,7.59-13.07l-24.12-8.46A29.84,29.84,0,0,1,278.3,606.81Z"/><circle class="cls-1" cx="349.48" cy="532.59" r="27.82"/><path class="cls-2" d="M349.48,562.47a29.88,29.88,0,1,1,29.88-29.88A29.91,29.91,0,0,1,349.48,562.47Zm0-55.65a25.77,25.77,0,1,0,25.77,25.77A25.8,25.8,0,0,0,349.48,506.82Z"/><circle class="cls-1" cx="252.5" cy="591.75" r="27.82"/><path class="cls-2" d="M252.5,621.63a29.88,29.88,0,1,1,29.88-29.88A29.91,29.91,0,0,1,252.5,621.63Zm0-55.65a25.77,25.77,0,1,0,25.77,25.77A25.8,25.8,0,0,0,252.5,566Z"/><path class="cls-1" d="M239.81,622.55a27.66,27.66,0,0,1,15.4,4.66c1.47-6.24,3.26-13.76,4.66-19.29-2.1-2.62-14.14-7.85-20.06-3.47L234.67,623A28,28,0,0,1,239.81,622.55Z"/><path class="cls-2" d="M255.21,629.26a2.06,2.06,0,0,1-1.14-.35,25.64,25.64,0,0,0-14.26-4.31,26.44,26.44,0,0,0-4.77.46,2,2,0,0,1-2.35-2.57l5.14-18.59a2,2,0,0,1,.76-1.1c7.13-5.29,20.43.78,22.88,3.84a2,2,0,0,1,.39,1.78c-1.45,5.75-3.33,13.64-4.65,19.26a2.07,2.07,0,0,1-1.24,1.44A2.22,2.22,0,0,1,255.21,629.26Zm-15.4-8.77A29.8,29.8,0,0,1,253.86,624c1.15-4.85,2.54-10.7,3.72-15.41-2.73-2-11.42-5.46-16-2.85l-4.11,14.85C238.26,620.53,239,620.49,239.81,620.49Z"/><path class="cls-1" d="M260.55,520.83l-13.28,47.29s10.84,7.37,20.36,5c3-14,7.27-32.44,10-44.16A27.81,27.81,0,0,1,260.55,520.83Z"/><path class="cls-2" d="M263.62,575.64c-8.82,0-17.1-5.54-17.51-5.82a2,2,0,0,1-.82-2.25l13.29-47.3a2.05,2.05,0,0,1,3.43-.89,25.78,25.78,0,0,0,15.82,7.52,2.07,2.07,0,0,1,1.81,2.51c-2.39,10.25-6.87,29.61-10,44.14a2.07,2.07,0,0,1-1.51,1.56A18.71,18.71,0,0,1,263.62,575.64Zm-14-8.46c2.79,1.62,9.82,5.15,16.25,4.19,2.9-13.4,6.82-30.38,9.22-40.69a30,30,0,0,1-13.49-6.12Z"/><path class="cls-1" d="M337.37,520.83c-4.09-3.79-16.88-11.14-29.35-17a27.7,27.7,0,0,1-8.2,17.29c7.82,5.64,20,13.58,29.69,16.25C333.18,534.85,339.46,529.37,337.37,520.83Z"/><path class="cls-2" d="M329.51,539.4a2,2,0,0,1-.54-.07c-9.87-2.71-22-10.5-30.35-16.57a2.05,2.05,0,0,1-.85-1.51,2.09,2.09,0,0,1,.61-1.62,25.71,25.71,0,0,0,7.6-16,2,2,0,0,1,1-1.59,2.09,2.09,0,0,1,1.9-.08c13.1,6.18,25.66,13.48,29.86,17.37a2,2,0,0,1,.6,1c1.74,7.06-1.35,13.71-8.69,18.71A2.08,2.08,0,0,1,329.51,539.4Zm-26.59-18.61c7.69,5.42,17.81,11.76,26.22,14.31,3.76-2.77,7.54-7.15,6.37-13.18-4-3.4-14.8-9.68-25.85-15A29.88,29.88,0,0,1,302.92,520.79Z"/><circle class="cls-1" cx="280.33" cy="501.26" r="27.82"/><path class="cls-2" d="M280.33,531.14a29.88,29.88,0,1,1,29.87-29.88A29.91,29.91,0,0,1,280.33,531.14Zm0-55.65a25.77,25.77,0,1,0,25.77,25.77A25.8,25.8,0,0,0,280.33,475.49Z"/><circle class="cls-1" cx="239.81" cy="650.37" r="27.82"/><path class="cls-2" d="M239.81,680.25a29.88,29.88,0,1,1,29.87-29.88A29.91,29.91,0,0,1,239.81,680.25Zm0-55.65a25.77,25.77,0,1,0,25.77,25.77A25.8,25.8,0,0,0,239.81,624.6Z"/><circle class="cls-1" cx="158.23" cy="573.11" r="27.82"/><path class="cls-2" d="M158.23,603a29.88,29.88,0,1,1,29.88-29.88A29.91,29.91,0,0,1,158.23,603Zm0-55.65A25.77,25.77,0,1,0,184,573.11,25.8,25.8,0,0,0,158.23,547.34Z"/><path class="cls-1" d="M144.66,556.08l-18.52-7.48a27.78,27.78,0,0,1-12,19.71,101.32,101.32,0,0,0,17.15,11.85l4.23-1.56C139.77,577,145.71,566,144.66,556.08Z"/><path class="cls-2" d="M131.31,582.22a2.13,2.13,0,0,1-1-.25,102.52,102.52,0,0,1-17.5-12.1,2,2,0,0,1,.18-3.26,25.75,25.75,0,0,0,11.09-18.25,2.05,2.05,0,0,1,2.81-1.67l18.52,7.48a2.07,2.07,0,0,1,1.27,1.69c1.09,10.31-5,22.63-10.45,24.66L132,582.09A2.17,2.17,0,0,1,131.31,582.22Zm-13.84-13.83a97.6,97.6,0,0,0,14,9.52l3.34-1.24c3.1-1.15,8.29-10.31,7.89-19.17l-15-6A29.82,29.82,0,0,1,117.47,568.39Z"/><path class="cls-1" d="M149,616.07c4.34-7.12,11.17-18.34,14.68-24.32-3-1.5-6.4-9-18.85-8.44l-13.35,21.62A27.8,27.8,0,0,1,149,616.07Z"/><path class="cls-2" d="M149,618.13a2.06,2.06,0,0,1-1.67-.86A25.64,25.64,0,0,0,131.06,607a2,2,0,0,1-1.5-1.19,2.05,2.05,0,0,1,.12-1.91L143,582.23a2,2,0,0,1,1.66-1c10.2-.43,15,4.2,17.86,7a10.92,10.92,0,0,0,2,1.68,2.06,2.06,0,0,1,1.05,1.26,2,2,0,0,1-.19,1.62c-3.38,5.75-9.86,16.42-14.7,24.35a2.07,2.07,0,0,1-1.68,1Zm-14.28-14.54a29.69,29.69,0,0,1,14.05,8.91c4.15-6.81,9.06-14.9,12.19-20.19-.39-.34-.78-.72-1.2-1.13-2.58-2.48-6.06-5.84-13.69-5.84h-.08Z"/><circle class="cls-1" cx="98.53" cy="545.29" r="27.82"/><path class="cls-2" d="M98.53,575.17a29.88,29.88,0,1,1,29.88-29.88A29.92,29.92,0,0,1,98.53,575.17Zm0-55.65a25.77,25.77,0,1,0,25.77,25.77A25.8,25.8,0,0,0,98.53,519.52Z"/><circle class="cls-1" cx="126.35" cy="632.27" r="27.82"/><path class="cls-2" d="M126.35,662.15a29.88,29.88,0,1,1,29.88-29.88A29.91,29.91,0,0,1,126.35,662.15Zm0-55.65a25.77,25.77,0,1,0,25.77,25.77A25.8,25.8,0,0,0,126.35,606.5Z"/><line class="cls-3" x1="1182.22" y1="476.1" x2="1149.68" y2="517.67"/><line class="cls-3" x1="1441.85" y1="497.52" x2="1441.85" y2="581.71"/><line class="cls-3" x1="1373.85" y1="652.26" x2="1178.88" y2="652.26"/><polygon class="cls-1" points="1209.98 488.93 1209.98 532.94 1377.89 532.94 1415 488.93 1209.98 488.93"/><rect class="cls-1" x="1209.98" y="539.62" width="166.12" height="43.91"/><polygon class="cls-1" points="1203.31 532.94 1203.31 494.75 1173.42 532.94 1203.31 532.94"/><polygon class="cls-1" points="1382.78 537.5 1382.78 583.52 1415.86 583.52 1415.86 498.27 1382.78 537.5"/><polygon class="cls-1" points="1382.78 590.2 1382.78 625.12 1413.63 590.2 1382.78 590.2"/><polygon class="cls-1" points="1376.1 590.2 1208.63 590.2 1176.63 629.36 1376.1 629.36 1376.1 590.2"/><polygon class="cls-1" points="1203.31 586.17 1203.31 539.62 1171.44 539.62 1171.44 625.15 1203.31 586.17"/><line class="cls-4" x1="1104.51" y1="48.26" x2="1104.51" y2="726.13"/><line class="cls-4" x1="38.3" y1="387.19" x2="2179.91" y2="387.19"/><rect class="cls-2" x="79.77" y="91.24" width="301.11" height="219.13" rx="33.45"/><path class="cls-1" d="M89.76,285.71a16.36,16.36,0,0,0,16.35,15.89H354.23a16.36,16.36,0,0,0,16.35-15.89Z"/><path class="cls-1" d="M370.59,176.61V116.92a16.36,16.36,0,0,0-16.36-16.37H106.11a16.36,16.36,0,0,0-16.36,16.37v59.69Z"/><path class="cls-2" d="M164.54,119.11h8.13v16h15.38v-16h8.07v40.7h-8.07V142.23H172.67v17.58h-8.13Z"/><path class="cls-2" d="M203.54,144.43c0-9.94,7-16.15,14.34-16.15,8.46,0,12.85,6.21,12.85,14.67a15.13,15.13,0,0,1-.38,3.73H211.4c.66,5.06,3.95,7.69,8.51,7.69a12.67,12.67,0,0,0,6.92-2.14l2.75,4.94a19.34,19.34,0,0,1-10.71,3.41C210.24,160.58,203.54,154.59,203.54,144.43Zm20.27-3.13c0-4.12-1.87-6.76-5.82-6.76-3.24,0-6.1,2.31-6.7,6.76Z"/><path class="cls-2" d="M237.38,151.19V116h8.08v35.54c0,1.86.82,2.47,1.59,2.47a4.56,4.56,0,0,0,1.1-.11l1,6a10.87,10.87,0,0,1-4.18.71C239.36,160.58,237.38,156.9,237.38,151.19Z"/><path class="cls-2" d="M254.69,151.19V116h8.07v35.54c0,1.86.83,2.47,1.6,2.47a4.56,4.56,0,0,0,1.1-.11l1,6a10.85,10.85,0,0,1-4.17.71C256.67,160.58,254.69,156.9,254.69,151.19Z"/><path class="cls-2" d="M270.07,144.43c0-10.22,7.09-16.15,14.78-16.15s14.77,5.93,14.77,16.15-7.08,16.15-14.77,16.15S270.07,154.65,270.07,144.43Zm21.31,0c0-5.77-2.36-9.56-6.53-9.56s-6.54,3.79-6.54,9.56,2.36,9.56,6.54,9.56S291.38,150.25,291.38,144.43Z"/><line class="cls-5" x1="167" y1="231.51" x2="293.64" y2="231.51"/><path class="cls-6" d="M438,585.44h13.36V537.2H441.15v-2.08a31,31,0,0,0,10.48-3.36h2.48v53.68h12.48v2.64H438Z"/><path class="cls-6" d="M476.43,559.76c0-18.64,5.84-29,16.48-29s16.4,10.4,16.4,29-5.84,29.36-16.4,29.36S476.43,578.4,476.43,559.76Zm29.92,0c0-17.44-5.28-26.48-13.44-26.48s-13.52,9-13.52,26.48,5.28,26.72,13.52,26.72S506.35,577.12,506.35,559.76Z"/><path class="cls-6" d="M519.71,585.68a3.26,3.26,0,1,1,6.48,0,3.25,3.25,0,1,1-6.48,0Z"/><path class="cls-6" d="M534.51,581.6l1.84-2.16c3.28,3.52,7.68,7,15.76,7,7.68,0,14.48-6.4,14.48-15.84s-5.6-15.2-14.32-15.2c-4.32,0-7.36,1.6-10.64,3.84l-2.4-1.44,2.08-26.08h25.36v2.64H544L542,555.76a18.84,18.84,0,0,1,10.48-3c9.52,0,17.12,5.44,17.12,17.76,0,12-8.88,18.64-17.68,18.64C543,589.12,538,585.12,534.51,581.6Z"/><path class="cls-6" d="M577.55,547c0-11.6,4.56-18.08,12.16-18.08S602,535.44,602,547c0,11.84-4.56,18.32-12.24,18.32S577.55,558.88,577.55,547Zm21.6,0c0-10-3.6-15.76-9.44-15.76S580.27,537,580.27,547s3.68,16,9.44,16S599.15,557,599.15,547ZM623.71,529h2.88l-32.48,60.16h-3Zm-7.52,41.84c0-11.6,4.56-18.08,12.24-18.08,7.52,0,12.16,6.48,12.16,18.08,0,11.84-4.64,18.32-12.16,18.32C620.75,589.12,616.19,582.64,616.19,570.8Zm21.68,0c0-10-3.76-15.76-9.44-15.76-5.84,0-9.52,5.76-9.52,15.76s3.68,16,9.52,16C634.11,586.8,637.87,580.8,637.87,570.8Z"/><path class="cls-6" d="M662.91,545.92h3.2l9.92,27.2c1.44,4.08,3,8.32,4.4,12h.32c1.44-3.68,3-7.92,4.4-12l10-27.2h3l-15.76,42.16h-3.44Z"/><path class="cls-6" d="M703.87,567.12c0-14.16,8.64-22.24,18.72-22.24s18.72,8.08,18.72,22.24c0,13.92-8.64,22-18.72,22S703.87,581,703.87,567.12Zm34.48,0c0-11.6-6.8-19.6-15.76-19.6s-15.68,8-15.68,19.6,6.72,19.36,15.68,19.36S738.35,578.64,738.35,567.12Z"/><path class="cls-6" d="M754.43,583.36v-58.8h2.88v59.28c0,1.76.64,2.64,1.76,2.64a7.16,7.16,0,0,0,1.52-.16l.56,2.48a8.67,8.67,0,0,1-2.4.32C756,589.12,754.43,587.44,754.43,583.36Z"/><path class="cls-6" d="M1527.86,188.44H1531l25.6,42.32,6.64,11.44h.4c-.32-5.6-.48-11-.48-16.4V188.44H1566v58.08h-3.2L1537.3,204.2l-6.64-11.44h-.32c.16,5.44.32,10.4.32,15.92v37.84h-2.8Z"/><path class="cls-6" d="M1579.46,225.56c0-14.16,8.64-22.24,18.72-22.24s18.72,8.08,18.72,22.24c0,13.92-8.64,22-18.72,22S1579.46,239.48,1579.46,225.56Zm34.48,0c0-11.6-6.8-19.6-15.76-19.6s-15.68,8-15.68,19.6,6.72,19.36,15.68,19.36S1613.94,237.08,1613.94,225.56Z"/><path class="cls-6" d="M1630,204.36h2.4l.48,7.92h.16c2.8-5.12,6.88-9,11.92-9a8.38,8.38,0,0,1,4.08.88l-.72,2.64a8.11,8.11,0,0,0-3.76-.72c-3.76,0-8.4,3-11.68,11.28v29.12H1630Z"/><path class="cls-6" d="M1652.58,255.32c0-3.68,2.48-7.6,6.4-10.4v-.32a7.51,7.51,0,0,1-3.76-6.72c0-3.84,2.8-6.48,4.64-7.76v-.32a15.81,15.81,0,0,1-5.36-11.6c0-8.56,6.4-14.88,14.48-14.88a15,15,0,0,1,5.52,1h14.08V207H1678.5a14.36,14.36,0,0,1,5,11.2c0,8.4-6.32,15-14.48,15a14.36,14.36,0,0,1-7.12-1.92c-1.92,1.52-3.68,3.52-3.68,6.4,0,3.2,1.76,5.84,8.24,5.84h9.36c9.28,0,13.52,3,13.52,9.44,0,7.12-7.6,14.16-19.44,14.16C1659.14,267.08,1652.58,262.36,1652.58,255.32Zm33.76-2.08c0-5-3.52-6.88-10.16-6.88h-9.6a26.85,26.85,0,0,1-5.12-.72c-4.16,2.8-5.84,6.32-5.84,9.44,0,5.6,5.2,9.44,14.4,9.44C1680.1,264.52,1686.34,258.76,1686.34,253.24Zm-5.84-35c0-7.52-5.2-12.24-11.52-12.24s-11.44,4.64-11.44,12.24c0,7.28,5.36,12.32,11.44,12.32S1680.5,225.48,1680.5,218.2Z"/><path class="cls-6" d="M1694.1,225.56c0-13.76,8.8-22.24,18.16-22.24,9.76,0,15.92,7,15.92,19.44a18.89,18.89,0,0,1-.16,2.88h-30.88c0,11.12,6.48,19.28,16.4,19.28a18.86,18.86,0,0,0,11.6-3.84l1.28,2.48c-3.2,1.92-6.8,4-13,4C1702.74,247.56,1694.1,239.32,1694.1,225.56Zm31.28-2.56c0-11.44-5.2-17-13.12-17-7.52,0-14.24,6.4-15.12,17Z"/><path class="cls-6" d="M1521.7,581.2l1.84-2.08c3.36,3.68,7.92,7.36,15.92,7.36s13.68-5.2,13.68-13c0-8.08-5.92-13.6-20.16-13.6V557c13.36,0,18-5.76,18-12.8,0-6.56-4.64-11-11.84-11-5.2,0-10,2.8-13.12,6.32l-1.84-2c3.68-3.76,8.4-6.88,15-6.88,8.32,0,15,4.88,15,13.36,0,7.6-4.8,12.08-11,14.08v.32c7,1.44,13,6.72,13,14.8,0,9.68-7.28,15.84-16.88,15.84C1530.34,589.12,1525.22,584.88,1521.7,581.2Z"/><path class="cls-6" d="M1563.38,581.2l1.84-2.08c3.36,3.68,7.92,7.36,15.92,7.36s13.68-5.2,13.68-13c0-8.08-5.92-13.6-20.16-13.6V557c13.36,0,18-5.76,18-12.8,0-6.56-4.64-11-11.84-11-5.2,0-10,2.8-13.12,6.32l-1.84-2c3.68-3.76,8.4-6.88,15-6.88,8.32,0,15,4.88,15,13.36,0,7.6-4.8,12.08-11,14.08v.32c7,1.44,13,6.72,13,14.8,0,9.68-7.28,15.84-16.88,15.84C1572,589.12,1566.9,584.88,1563.38,581.2Z"/><path class="cls-6" d="M1624.74,567.12c0-14.16,8.8-22.24,19-22.24,5.76,0,9.52,2.64,12.32,5.28l-1.84,2.08c-2.8-2.64-6.16-4.72-10.48-4.72-8.88,0-15.92,8-15.92,19.6s6.32,19.36,15.92,19.36a17.26,17.26,0,0,0,11.68-5l1.68,2.08c-3.52,3.12-8,5.6-13.44,5.6C1632.9,589.12,1624.74,581,1624.74,567.12Z"/><path class="cls-6" d="M1667.78,583.36v-58.8h2.88v59.28c0,1.76.64,2.64,1.76,2.64a7.16,7.16,0,0,0,1.52-.16l.56,2.48a8.67,8.67,0,0,1-2.4.32C1669.38,589.12,1667.78,587.44,1667.78,583.36Z"/><path class="cls-6" d="M1685.7,585.68a3.26,3.26,0,1,1,6.48,0,3.25,3.25,0,1,1-6.48,0Z"/><path class="cls-6" d="M442.19,240.24l2-2.08a22.71,22.71,0,0,0,17.36,8.08c9.28,0,15.2-5,15.2-12.32,0-7.76-4.88-10.16-10.72-12.8l-8.88-4c-5-2.24-11.84-5.68-11.84-14.24,0-8.4,7-14,16.48-14a21.31,21.31,0,0,1,15.84,6.88l-1.84,2a18.75,18.75,0,0,0-14-6.08c-8.08,0-13.44,4.32-13.44,10.88,0,7.28,6.08,9.92,10.16,11.76l8.88,4c6.56,3,12.32,6.4,12.32,15.36S472.51,249,461.55,249A24.74,24.74,0,0,1,442.19,240.24Z"/><path class="cls-6" d="M491.07,236.8V208.48h-6.72v-2.24l6.72-.4.32-12.32h2.48v12.32h12.48v2.64H493.87V237.2c0,5.44,1.2,9.2,7.36,9.2a14.34,14.34,0,0,0,5.36-1.36l1,2.4A24.64,24.64,0,0,1,501,249C493.15,249,491.07,244.16,491.07,236.8Z"/><path class="cls-6" d="M512.27,227c0-14.16,8.64-22.24,18.72-22.24s18.72,8.08,18.72,22.24c0,13.92-8.64,22-18.72,22S512.27,241,512.27,227Zm34.48,0c0-11.6-6.8-19.6-15.76-19.6s-15.68,8-15.68,19.6S522,246.4,531,246.4,546.75,238.56,546.75,227Z"/><path class="cls-6" d="M562.11,233V205.84H565v26.8c0,9.28,3,13.76,10.08,13.76,5.2,0,9.12-2.8,14.32-9V205.84h2.88V248h-2.48l-.32-7.2h-.16c-4.24,4.88-8.64,8.24-14.48,8.24C566.19,249,562.11,243.92,562.11,233Z"/><path class="cls-6" d="M610,236.8V208.48h-6.72v-2.24l6.72-.4.32-12.32h2.48v12.32h12.48v2.64H612.75V237.2c0,5.44,1.2,9.2,7.36,9.2a14.34,14.34,0,0,0,5.36-1.36l1,2.4a24.64,24.64,0,0,1-6.56,1.6C612,249,610,244.16,610,236.8Z"/></svg>
